<?xml version="1.0" encoding="UTF-8"?>
<svg enable-background="new 0 0 135.704 113.099" viewBox="0 0 135.704 113.099" xmlns="http://www.w3.org/2000/svg">
 <g transform="translate(-101.85 -78.47)">
  <path d="m126.66 84.069h86.091c5.0753 0 9.1612 3.9876 9.1612 8.9407v84.019c0 4.9532-4.0859 8.9407-9.1612 8.9407h-86.091c-5.0753 0-9.1612-3.9876-9.1612-8.9407v-84.019c0-4.9531 4.0859-8.9407 9.1612-8.9407z" fill="none" stroke="#000" stroke-width="4.2747"/>
  <path d="m124.35 97.654c0.342-1.2137 2.0818-1.5027 2.0134-0.11559l0.91898 10.302c-0.09673 0.73564 0.96735 1.1035 0.91898 0l0.91898-10.302c0.171-1.0114 1.7012-1.127 1.838 0l0.91898 10.302c0 0.93999 0.82225 1.0626 0.91898 0l0.91898-10.302c0.1026-1.1559 1.5644-1.0982 1.838 0l0.91898 10.302c-0.11677 1.0498 1.0216 1.0115 0.91898 0l0.91899-10.302c0.22256-1.1211 1.5468-0.88612 1.838 0 2.5518 5.9708 0 30.735 0 30.735-0.19346 3.7599-14.372 3.4845-14.704 0-0.0684-0.23119-3.2833-24.489-1.0944-30.62z"/>
  <g transform="translate(215.87 79.679)">
   <path d="m-86.113 35.515h5.3428v62.612c0.20911 3.5862-5.3405 3.5845-5.3428 0v-62.612z"/>
   <path d="m-84.549 71.113h2.2215c1.6491 0 2.9768 1.3276 2.9768 2.9768v23.814c0 1.6491-1.3276 2.9768-2.9768 2.9768h-2.2215c-1.6491 0-2.9768-1.3276-2.9768-2.9768v-23.814c0.51052-2.7094 1.3276-2.9768 2.9768-2.9768z"/>
  </g>
  <g transform="translate(236.35 81.456)">
   <path d="m-27.768 70.669h2.2215a2.9768 2.9768 0 0 1 2.9768 2.9768v23.814a2.9768 2.9768 0 0 1 -2.9768 2.9768h-2.2215a2.9768 2.9768 0 0 1 -2.9768 -2.9768v-23.814a2.9768 2.9768 0 0 1 2.9768 -2.9768"/>
   <g transform="translate(.62833,.31416)">
    <path d="m-29.918 28.396h5.3428v68.71c0.20911 3.9355-5.3405 3.9336-5.3428 0v-68.71z"/>
    <path d="m-26.214 11.326c0.91118 0 1.6447 0.73355 1.6447 1.6447v37.849c0 0.91118-0.73355 1.6447-1.6447 1.6447h-6.6047c-0.91119 0-1.6447-0.73355-1.6447-1.6447v-27.904c0-10.068 8.2494-11.59 8.2494-11.59z"/>
   </g>
  </g>
  <path d="m170.38 113.24c-17.413 0-31.562 14.15-31.562 31.562s14.15 31.531 31.562 31.531 31.531-14.118 31.531-31.531-14.118-31.562-31.531-31.562zm0.875 7.7812c13.121 0 23.781 10.66 23.781 23.781s-10.66 23.75-23.781 23.75-23.75-10.629-23.75-23.75 10.629-23.781 23.75-23.781z"/>
  <path d="m171.24 122.88c-12.079 0-21.901 9.8227-21.901 21.901s9.8227 21.919 21.901 21.919 21.919-9.84 21.919-21.919-9.84-21.901-21.919-21.901z"/>
 </g>
</svg>
